# xmcd
#
# Track frame offsets:
#	150
#	26497
#	57445
#	75122
#	93947
#	109115
#	143295
#	164097
#	187400
#	196392
#	223075
#	248537
#	276430
#	297095
#
# Disc length: 4295 seconds
#
# Revision: 1
# Processed by: cddbd v1.5.1PL0 Copyright (c) Steve Scherf et al.
# Submitted via: audiograbber 1.82.02
#
DISCID=c710c50e
DTITLE=Jeff Healey - His greatest hits live
DYEAR=1993
DGENRE=Blues
TTITLE0=Confidence man
TTITLE1=When the night comes falling from the night
TTITLE2=River of no return
TTITLE3=Further on up the road
TTITLE4=My little girl
TTITLE5=Blue jeans blues
TTITLE6=I need to be loved
TTITLE7=I think I loved too much
TTITLE8=Interview with Jeff Healey
TTITLE9=Road house blues
TTITLE10=Angel eyes
TTITLE11=See the light
TTITLE12=While my guitar gently weeps
TTITLE13=White room
EXTD=
EXTT0=
EXTT1=
EXTT2=
EXTT3=
EXTT4=
EXTT5=
EXTT6=
EXTT7=
EXTT8=
EXTT9=
EXTT10=
EXTT11=
EXTT12=
EXTT13=
PLAYORDER=
